# xmcd
#
# Track frame offsets:
# 150
# 30920
# 52370
# 82281
# 101485
# 126715
# 159171
# 181049
# 196957
# 217842
# 251598
# 273544
# 312741
#
# Disc length: 4454 seconds
#
#
# Revision: 12
# Processed by: cddbd v1.5.1PL0 Copyright (c) Steve Scherf et al.
# Submitted via: FreeRIP 2.931 
#
DISCID=bc11640d
DTITLE=JOAQUÍN SABINA - 19 dias y 500 noches
DYEAR=1999
DGENRE=
TTITLE0=JOAQUÍN SABINA=Ahora que..
TTITLE1=JOAQUÍN SABINA=19 días y 500 noches
TTITLE2=JOAQUÍN SABINA=Barbi Superestar
TTITLE3=JOAQUÍN SABINA=Una canción para la Magdalena
TTITLE4=JOAQUÍN SABINA=Dieguitos y Mafaldas
TTITLE5=JOAQUÍN SABINA=A mis cuarenta y diez
TTITLE6=JOAQUÍN SABINA=El caso de la rubia platino
TTITLE7=JOAQUÍN SABINA=Donde habita el olvido
TTITLE8=JOAQUÍN SABINA=Cerrado por derribo
TTITLE9=JOAQUÍN SABINA=Pero qué hermosas eran
TTITLE10=JOAQUÍN SABINA=De purísima y oro
TTITLE11=JOAQUÍN SABINA=Como te digo una 'co' te digo la 'o'
TTITLE12=JOAQUÍN SABINA=Noches de boda
EXTD=AVM
EXTT0=
EXTT1=
EXTT2=
EXTT3=
EXTT4=
EXTT5=
EXTT6=
EXTT7=
EXTT8=
EXTT9=
EXTT10=
EXTT11=
EXTT12=
PLAYORDER=
